<?xml version="1.0" encoding="UTF-8" standalone="no"?>
<!DOCTYPE svg PUBLIC "-//W3C//DTD SVG 1.1//EN" "http://www.w3.org/Graphics/SVG/1.1/DTD/svg11.dtd">
<svg width="100%" height="100%" viewBox="0 0 11812 11812" version="1.1" xmlns="http://www.w3.org/2000/svg" xmlns:xlink="http://www.w3.org/1999/xlink" xml:space="preserve" xmlns:serif="http://www.serif.com/" style="fill-rule:evenodd;clip-rule:evenodd;stroke-linecap:round;stroke-linejoin:round;stroke-miterlimit:1.5;">
    <g transform="matrix(1.145138,0,0,1.145138,-748.900166,-547.727841)">
        <g transform="matrix(0.896539,0,0,0.896539,488.456,517.140604)">
            <path d="M822,6899C412.638,3478.797 2535.187,1291.965 5272,862L5287,214L7101,1352L5265,2546L5271,1856C2939.21,2171.823 1321.678,4260.309 1717,6928L936,6421L822,6899Z" style="fill:rgb(255,107,32);stroke:black;stroke-width:0.97px;"/>
        </g>
        <g transform="matrix(0.896423,0.014419,-0.014419,0.896423,607.308032,394.609899)">
            <path d="M7430.24,1218.55C10618.862,2521.643 11499.749,5439.088 10546.539,8040.32L11105.714,8368.119L9229.985,9401.212L9077.843,7216.404L9678.104,7556.732C10534.403,5364.988 9494.237,2936.771 6970.253,1986.845L7792.73,1550.334L7430.24,1218.55Z" style="fill:rgb(255,107,32);stroke:black;stroke-width:0.97px;"/>
        </g>
        <g transform="matrix(-0.410406,-0.797088,0.797088,-0.410406,3426.514184,13097.564155)">
            <path d="M822,6899C412.638,3478.797 2535.187,1291.965 5272,862L5287,214L7101,1352L5265,2546L5271,1856C2939.21,2171.823 1321.678,4260.309 1717,6928L936,6421L822,6899Z" style="fill:rgb(255,107,32);stroke:black;stroke-width:0.97px;"/>
        </g>
        <g transform="matrix(0.896539,0,0,0.896539,512.662559,483.968652)">
            <path d="M6273.806,2880.889L6390.585,3560.027C6663.302,3626.365 6923.694,3739.556 7161.231,3895.022L7701.403,3501.458C7946.947,3693.355 8164.569,3921.737 8347.425,4179.422L7972.403,4746.303C8120.545,4995.586 8228.403,5268.853 8291.615,5555.054L8938.755,5677.607C8983.082,5995.51 8983.082,6318.49 8938.755,6636.393L8291.615,6758.946C8228.403,7045.147 8120.545,7318.414 7972.403,7567.697L8347.425,8134.578C8164.569,8392.263 7946.947,8620.645 7701.403,8812.542L7161.231,8418.978C6923.694,8574.444 6663.302,8687.635 6390.585,8753.973L6273.806,9433.111C5970.882,9479.63 5663.118,9479.63 5360.194,9433.111L5243.415,8753.973C4970.698,8687.635 4710.306,8574.444 4472.769,8418.978L3932.597,8812.542C3687.053,8620.645 3469.431,8392.263 3286.575,8134.578L3661.597,7567.697C3513.455,7318.414 3405.597,7045.147 3342.385,6758.946L2695.245,6636.393C2650.918,6318.49 2650.918,5995.51 2695.245,5677.607L3342.385,5555.054C3405.597,5268.853 3513.455,4995.586 3661.597,4746.303L3286.575,4179.422C3469.431,3921.737 3687.053,3693.355 3932.597,3501.458L4472.769,3895.022C4710.306,3739.556 4970.698,3626.365 5243.415,3560.027L5360.194,2880.889C5663.118,2834.37 5970.882,2834.37 6273.806,2880.889ZM5817,4473.402C6702.423,4473.402 7421.274,5227.797 7421.274,6157C7421.274,7086.203 6702.423,7840.598 5817,7840.598C4931.577,7840.598 4212.726,7086.203 4212.726,6157C4212.726,5227.797 4931.577,4473.402 5817,4473.402Z" style="fill:rgb(255,107,32);"/>
        </g>
    </g>
</svg>
